<?xml version="1.0" encoding="utf-8"?>
<!-- Generator: Adobe Illustrator 21.1.0, SVG Export Plug-In . SVG Version: 6.00 Build 0)  -->
<svg version="1.1" id="Capa_1" xmlns="http://www.w3.org/2000/svg" xmlns:xlink="http://www.w3.org/1999/xlink" x="0px" y="0px"
	 viewBox="0 0 500.4 500.4" style="enable-background:new 0 0 500.4 500.4;" xml:space="preserve">
<style type="text/css">
	.st0{fill:#FFFFFF;}
</style>
<path class="st0" d="M454.8,51L406.3,2.5c-3.3-3.3-8.7-3.3-12,0s-3.3,8.7,0,12L442.8,63c17,17,17,44.5,0,61.5
	c-8.1,8.1-19.1,12.5-30.8,12.3c-11.7-0.2-22.7-4.8-31-13.1l-63.6-63.6c-23.6-23.6-61.9-23.6-85.4-0.1c-23.6,23.6-23.6,62,0,85.5
	l22.8,22.8c-17.8-6.2-36.7-9.4-56.1-9.4c-45.6,0-88.5,17.8-120.7,50c-66.6,66.6-66.6,174.9,0,241.5c32.3,32.3,75.1,50,120.7,50
	c45.6,0,88.5-17.8,120.7-50s50-75.1,50-120.7s-17.8-88.5-50-120.7c-0.8-0.8-1.5-1.5-2.3-2.2L244,133.5c-17-17-17-44.5,0-61.5
	c16.9-16.9,44.4-16.8,61.4,0.1l63.6,63.6c11.4,11.4,26.6,17.9,42.8,18.1c16.3,0.2,31.6-5.9,43-17.3C478.4,112.9,478.4,74.6,454.8,51
	z M282.5,200.8c-20.5,1.7-40.6,6.1-59.6,13c-0.4-0.2-0.8-0.4-1.3-0.5c-37.1-11.9-76-14.5-113.9-7.6c26.2-19.3,57.7-29.7,90.8-29.7
	C228.9,175.9,257.8,184.6,282.5,200.8z M108.9,301.4c-21-0.7-41.9,1.5-62.4,6.4c1.3-9.1,3.4-18,6.3-26.8c0.2,0,0.3-0.1,0.5-0.1
	c29.9-10.4,56.2-14.4,83.4-12.5c-0.2,0.2-0.4,0.4-0.6,0.6C125.9,279.1,116.9,289.9,108.9,301.4z M153.5,253.1
	C153.5,253.1,153.5,253.1,153.5,253.1c-31.1-4.5-60.1-2.2-92.2,7.3c5.6-11.2,12.7-21.8,21.2-31.5c36.2-10.5,77.9-12.5,115.3-4.4
	C182.1,232.2,167.3,241.8,153.5,253.1z M45,325.7c17.4-4.7,35.2-7.2,53.2-7.5c-16.3,28.3-26.6,59.8-30,92.8
	C51.9,385.1,44.2,355.3,45,325.7z M83.9,432c1-57.1,23.6-110.6,64.1-151c40.8-40.8,97.5-63.5,155.1-64.1c1.4,1.3,2.8,2.7,4.2,4
	c5.9,5.9,11.2,12.1,15.9,18.7c-114.4,8.9-206,99.2-216.4,213.5c-6-4.4-11.6-9.4-17-14.7C87.8,436.3,85.8,434.2,83.9,432z
	 M344.6,281.1c-51.4,6.7-96.9,27.8-131.9,61.2c-36.4,34.8-58.7,80.6-64.6,132.7c-8.6-3-17-6.8-25-11.3
	c5.7-113.3,97.1-203.5,210.5-207.7C338.1,264.1,341.7,272.5,344.6,281.1z M340.2,389.7c-12.9-28.4-31.5-54-54.3-75.2
	c11.4-4.9,23.3-8.9,35.8-11.9c11.8,15,21.5,31.5,29,49.1C348.9,364.9,345.4,377.6,340.2,389.7z M351.8,316.3
	c-3.6-6-7.4-11.8-11.5-17.4c2.9-0.5,5.8-0.9,8.8-1.2C350.3,303.8,351.3,310,351.8,316.3z M263.8,390.1c14.8,16.3,27.1,34.8,36.4,55
	c-24.6,21.7-55.1,34.8-87.7,37.7C217.3,444.3,236,410.3,263.8,390.1z M195.4,483.4c-10.4-0.2-20.7-1.5-30.6-3.7
	c5-49.3,26.3-92.2,59.2-124.1c9.9,6.7,19.2,14.1,27.9,22.2C220.7,401.5,200.1,440.1,195.4,483.4z M313,432.4
	c-17.5-35.4-43.6-65.7-76-88.4c10-8.1,20.8-15.3,32.4-21.5c27,23.5,47.9,53.5,60.7,87C325.2,417.6,319.5,425.2,313,432.4z"/>
</svg>
