<?xml version="1.0" encoding="utf-8"?>
<!-- Generator: Adobe Illustrator 21.1.0, SVG Export Plug-In . SVG Version: 6.00 Build 0)  -->
<svg version="1.1" id="Capa_1" xmlns="http://www.w3.org/2000/svg" xmlns:xlink="http://www.w3.org/1999/xlink" x="0px" y="0px"
	 viewBox="0 0 485.9 485.9" style="enable-background:new 0 0 485.9 485.9;" xml:space="preserve">
<style type="text/css">
	.st0{fill:#FFFFFF;}
</style>
<path class="st0" d="M391.8,444.2h-71.9L317,326.3c-0.2-9.4,1.2-18.6,4.2-27.5l30.2-89.1c2.2-6.4,3.1-13.1,2.6-19.8l-4.4-69.8
	c0.1-0.1,0.2-0.1,0.2-0.2c7.4-5.8,11.5-14.9,11.1-24.4c-0.3-6.8-0.9-16.4-1.8-23.6c-0.1-0.6-0.2-1.3-0.5-1.9c-0.5-1.1-1-2.3-1.7-3.5
	l0.2-0.3c1.9-2.3,3.1-5.1,3.2-8.1c0.7-12.4,2.1-42.3,0.4-52.1c-0.4-2.3-1.8-4.2-3.9-5.3c-2-1.1-4.5-1.2-6.6-0.2
	c-2.9,1.3-8,4.3-18.3,15.6c-0.1,0.1-0.2,0.2-0.3,0.3c-5.9,6.4-11.7,13.5-16.1,19.2h-30.9c-4.4-5.6-10.2-12.8-16.1-19.2
	c-0.1-0.1-0.2-0.2-0.3-0.3C258.1,5,253,1.9,250.1,0.6c-2.1-0.9-4.5-0.9-6.6,0.2s-3.5,3-3.9,5.3c-1.7,9.7-0.3,39.7,0.4,52.1
	c0.2,2.9,1.3,5.8,3.2,8.1l0.2,0.3c-0.7,1.2-1.3,2.3-1.7,3.5c-0.2,0.6-0.4,1.2-0.5,1.9c-0.9,7.2-1.5,16.8-1.8,23.6
	c-0.4,7.2,2,14.3,6.5,19.8l-18.7,34.3l-56.7,19.6c-39.3,13.6-68.8,47.3-76.9,88.1c-10.3,52-22.2,123.3-20.2,168
	c0.5,11.9,3.7,23.6,9.1,33.7c6.7,12.6,18.2,27,47.2,27h262c11.5,0,20.8-9.3,20.8-20.8S403.3,444.2,391.8,444.2z M257.4,26.4
	c0.1,0.1,0.1,0.2,0.2,0.2c7,7.6,14,16.6,17.6,21.2c1.7,2.2,4.5,3.3,7.2,2.8h35.7c2.6,0.4,5.4-0.6,7.2-2.8
	c3.6-4.7,10.7-13.7,17.7-21.4c0,0,0,0,0,0c1.3-1.4,2.5-2.7,3.6-3.8c0,10-0.6,23.1-1.2,34.3l-3.7,4.4c-2.4,2.8-2.4,6.8-0.1,9.6
	c1.4,1.7,2.2,3,2.7,3.9c0.8,6.6,1.3,15.2,1.6,21.4c0.2,4.6-1.8,9-5.4,11.8c-8.5,6.8-24.7,19-37,25.2c-2.1,1.1-4.6,1.1-6.7,0
	c-12.3-6.2-28.4-18.4-37-25.2c-3.6-2.8-5.6-7.3-5.4-11.8c0.3-6.2,0.8-14.8,1.6-21.4c0.5-0.9,1.3-2.2,2.7-3.9
	c2.3-2.8,2.3-6.9-0.1-9.6L255,57c-0.6-11.2-1.1-24.3-1.2-34.3C254.9,23.7,256.1,25,257.4,26.4z M391.8,470.9h-262
	c-19.8,0-27.7-7.3-34-19.1c-4.4-8.1-6.9-17.6-7.3-27.3c-2-43.2,9.7-113.2,19.9-164.4c7.1-35.6,32.8-65,67.1-76.8l59.5-20.5
	c1.8-0.6,3.2-1.9,4.1-3.5l18.5-34c10.1,7.7,22.3,16.2,32.5,21.4c3.2,1.6,6.6,2.4,10.1,2.4s6.9-0.8,10.1-2.4
	c7.8-3.9,16.7-9.8,25-15.8l3.8,59.9c0.3,4.8-0.3,9.5-1.9,14.1L307,294c-3.6,10.6-5.3,21.6-5,32.7l2.9,117.5h-10.5l-16.5-123.5
	c0-0.2,0-0.3-0.1-0.5l-21.3-106c-0.8-4.1-4.8-6.7-8.8-5.9c-4.1,0.8-6.7,4.8-5.9,8.8l21.3,105.8l2.1,16.1
	c-7.3-17.3-19.6-32.2-36-42.9c-3.5-2.3-8.1-1.3-10.4,2.1c-2.3,3.5-1.3,8.1,2.1,10.4c22,14.4,35.3,37.8,36.7,64
	c1.4,26.2-9.5,50.9-29.8,67.6l-4.9,4h-20.3c-25.4,0-50.2-7.2-71.7-20.8c-3.5-2.2-8.1-1.2-10.4,2.3s-1.2,8.1,2.3,10.4
	c23.9,15.2,51.5,23.2,79.7,23.2h188.9c3.2,0,5.8,2.6,5.8,5.8S395,470.9,391.8,470.9z M279.2,444.2h-33.5
	c14.5-14.9,23.6-33.7,26.3-54.2L279.2,444.2z"/>
</svg>
