<?xml version="1.0" encoding="utf-8"?>
<!-- Generator: Adobe Illustrator 21.1.0, SVG Export Plug-In . SVG Version: 6.00 Build 0)  -->
<svg version="1.1" id="Layer_1" xmlns="http://www.w3.org/2000/svg" xmlns:xlink="http://www.w3.org/1999/xlink" x="0px" y="0px"
	 viewBox="0 0 512 512" style="enable-background:new 0 0 512 512;" xml:space="preserve">
<style type="text/css">
	.st0{fill:#FFFFFF;}
</style>
<g>
	<g>
		<path class="st0" d="M458.7,13.8C454.4,5.3,445.8,0,436.3,0c-3.8,0-7.7,0.9-11.1,2.6l-23.1,11.6c-3.4,1.7-5.5,4.8-6.1,8.3
			L111.4,164.8c-1.6-0.8-3.4-1.3-5.2-1.3c-1.7,0-3.5,0.4-5,1.2L78,176.2c-6,3-10.4,8.1-12.5,14.4c-2.1,6.3-1.6,13.1,1.3,19.1
			c3.2,6.5,9,11.1,15.7,12.9V357c-18.2,3.6-31.9,19.6-31.9,38.8c0,10.1,3.9,38.3,9.5,62.6c3.3,14.4,6.9,26,10.6,34.5
			c3.6,8.2,9.4,19.1,19.4,19.1c10,0,15.8-10.9,19.4-19.1c3.7-8.5,7.2-20.1,10.6-34.5c0.5-2,0.9-4.1,1.4-6.2
			c7.7,7.9,16.9,16.7,25.6,23.5c7.9,6.2,17.3,12.6,25.6,12.6c2.6,0,5.1-0.6,7.4-2.1c8.4-5.3,7.6-17.7,6.2-26.5
			c-1.4-9.1-4.6-20.9-9.5-34.8c-8.2-23.6-19.9-49.5-25.3-58.1c-5.6-8.9-14.4-15.1-24.7-17.5c-7.8-1.8-15.7-1.2-23,1.7l-6.1-9.6V222
			c0.9-0.3,25.7-12.7,25.7-12.7c3.4-1.7,5.5-4.8,6.1-8.3l135.5-67.8c3.8-1.9,5.3-6.4,3.4-10.2c-1.9-3.8-6.4-5.3-10.2-3.4
			l-133.6,66.8l-4.5-9.1L400.9,37l4.5,9.1L329,84.3c-3.8,1.9-5.3,6.4-3.4,10.2c1.3,2.7,4,4.2,6.8,4.2c1.1,0,2.3-0.3,3.4-0.8
			l78.3-39.2c1.6,0.8,5,2.2,10.3,0.1l23.1-11.6c6-3,10.4-8.1,12.5-14.4C462.1,26.5,461.7,19.8,458.7,13.8z M82.6,481.4
			c-2.5-6.8-5.4-16.5-8.4-30.3c-5.3-24.2-8.3-48.1-8.3-55.4c0-10.7,7-19.9,16.7-23.1V481.4z M125.1,433.9c1-5.8,1.9-11.4,2.6-16.6
			l29.7,47.1C149.8,458.6,139.1,449,125.1,433.9z M123.5,364.3c6.3,1.4,11.7,5.2,15.2,10.7c3.9,6.2,14.1,27.9,22.5,51.3
			c4.8,13.3,7.5,23,9,30.1l-40.8-64.6c-1.1-11.3-7.1-21.2-15.7-27.7C116.9,363.5,120.2,363.5,123.5,364.3z M114.5,395.8
			c0,7.3-2.9,31.2-8.3,55.4c-3,13.8-5.9,23.5-8.4,30.3V372.7C107.5,375.9,114.5,385,114.5,395.8z M93.6,207.3
			c-1.4,0.7-8.9,4.2-13.1-4.4c-3.9-8,2-11.9,4.4-13.1l19.6-9.8l8.7,17.5L93.6,207.3z M440.7,33.7l-19.6,9.8L412.4,26l19.6-9.8
			c1.4-0.7,9.3-3.5,13.1,4.4C448.8,28.4,443,32.5,440.7,33.7z"/>
	</g>
</g>
<g>
	<g>
		<path class="st0" d="M314.1,100.3c-1.9-3.8-6.4-5.3-10.2-3.4l-19.3,9.6c-3.8,1.9-5.3,6.4-3.4,10.2c1.3,2.7,4,4.2,6.8,4.2
			c1.1,0,2.3-0.3,3.4-0.8l19.3-9.6C314.4,108.6,316,104,314.1,100.3z"/>
	</g>
</g>
</svg>
