<?xml version="1.0" encoding="utf-8"?>
<!-- Generator: Adobe Illustrator 21.1.0, SVG Export Plug-In . SVG Version: 6.00 Build 0)  -->
<svg version="1.1" id="Capa_1" xmlns="http://www.w3.org/2000/svg" xmlns:xlink="http://www.w3.org/1999/xlink" x="0px" y="0px"
	 viewBox="0 0 462.3 462.3" style="enable-background:new 0 0 462.3 462.3;" xml:space="preserve">
<style type="text/css">
	.st0{fill:#FFFFFF;}
</style>
<path class="st0" d="M460.9,33.9l-4.6-15.7c-1.6-5.6-5.5-10.3-10.7-12.9c-5.2-2.6-11.3-3-16.7-1.1c-7,2.5-12.2,8.6-13.7,15.9
	l-22.5,116.3l-38.1-43.1l6.6-17.6c4.1-11,3.3-23.3-2.2-33.7c-5.2-9.9-15-16.2-26.2-17l-17.2-1.2c-9.8-0.7-19.7,2-27.9,7.4
	l-22.4,14.9l-37-12.3c-2.6-0.9-5.5-0.2-7.5,1.6c-2,1.9-2.8,4.7-2.1,7.4l16.6,62.7c3.1,11.7,7.5,23,13.1,33.7l13.6,26.1
	c-64.1,28.9-108.2,89.4-115.7,159.8l-3.3,31.2c-0.9,8.6-5.2,16.3-12.2,21.5c-6.9,5.3-15.7,7.6-24.7,6.6c-39-4.2-58.9-23.6-63.2-30.8
	c-7.6-12.5-4.7-34,8.3-60.6c12.5-25.5,12.5-34.2,8.7-39.4c-2.2-3-5.9-4.5-9.9-3.9c-8,1.2-17.6,11-24.2,19
	c-9,10.9-16.2,23.1-19.9,33.6c-7.2,20.6-7.9,40.8-2.1,58.4c7,21.3,23.1,38.5,47.7,51.2c52.7,27.2,102.6,30.8,144.4,30.8h26
	c6.1,10,17.2,16.5,29.5,16.5H361c2.4,0,4.7-1.2,6.1-3.2s1.7-4.6,0.9-6.9c-4.6-12.6-15.1-21.8-28.2-24.6c-33.3-7.2-49-13.8-54.7-17.6
	c13.2-16.2,20.9-34.1,22.6-52.1l16.7-14.1l40.1,95.8c5.8,13.8,19.1,22.7,34.1,22.7h26.9c4.1,0,7.5-3.4,7.5-7.5
	c0-18.3-13-33.6-30.9-36.6l-19.9-128.1c3.5-13.7,11.5-28.8,23.9-44.9c7-9.1,11.5-19.4,13.8-30c9.4-2.4,26.3-10.9,32.5-40.8
	c0.1-0.6,0.2-1.1,0.2-1.7c-1.2-55.5,6-102.2,9.2-119.8C462.7,44.6,462.4,39.1,460.9,33.9z M394.2,233.1c-4.2,5.4-7.9,10.8-11.2,16.1
	l0.5-20.6c0.1-4.1-3.2-7.6-7.3-7.7c-4.1-0.1-7.6,3.2-7.7,7.3c0,0-1.5,59.4-1.4,59.8l21,135c0.5,3.2,3.1,5.8,6.3,6.3l4.8,0.7
	c8.3,1.2,14.9,6.9,17.5,14.4h-18.1c-8.9,0-16.8-5.3-20.2-13.5L302,248c-1.6-3.8-6-5.6-9.8-4c-3.8,1.6-5.6,6-4,9.8l30.3,72.5
	l-11.1,9.4c-3.2-21.5-15-39.9-32.4-50.7c-35.1-21.7-88.3,12.1-90.5,13.6c-3.5,2.2-4.5,6.9-2.2,10.4c2.3,3.5,6.9,4.5,10.4,2.2
	c13.1-8.5,51.9-27.4,74.5-13.4c13.7,8.5,23,23.3,25.5,40.5c3.1,21.4-5,44-22.6,63.6c-1.6,1.8-2.2,4.2-1.8,6.5
	c1.6,7.8,10.1,13.9,28.5,20.3c13.2,4.6,29,8.4,40,10.7c3.9,0.8,7.4,2.6,10.3,5h-95.4c-9.4,0-17.5-6.7-19.3-16l-7.9-42.4
	c-0.8-4.1-4.7-6.8-8.7-6c-4.1,0.8-6.8,4.7-6,8.7l7.3,39.1H196c-42,0-87.8-3.5-137.6-29.2c-21.1-10.8-34.6-25.2-40.4-42.6
	c-4.8-14.4-4.1-31.3,2-48.8c5.1-14.6,16.7-29.4,24.8-37.2c-1.4,3.8-3.6,9.2-7.1,16.4c-10.8,22.2-21,53.2-7.6,75
	c6.8,11.1,31,33.2,74.4,37.8c12.8,1.4,25.4-2,35.4-9.6c10.3-7.8,16.7-19.1,18-31.9l3.3-31.2c7-65.4,48-121.5,107.7-148.1l5.8,11.2
	c1.9,3.7,6.5,5.1,10.1,3.2c3.7-1.9,5.1-6.4,3.2-10.1l-26.5-50.6c-5.1-9.7-9.1-20-11.9-30.6l-13-49.3l27.3,9.1
	c2.2,0.7,4.6,0.4,6.5-0.9l25.4-17c5.4-3.6,12-5.4,18.6-4.9l17.2,1.2c5.9,0.4,11.2,3.8,14,9.1c3.5,6.6,4,14.4,1.4,21.4l-3,7.9
	c-2.3,6.1-7.7,10.7-14.2,11.8l-34.9,6.3c-4.1,0.7-6.8,4.6-6,8.7c0.7,3.6,3.8,6.2,7.4,6.2c0.4,0,0.9,0,1.4-0.1l34.9-6.3
	c3.3-0.6,6.4-1.7,9.3-3.2l49.5,56C410.4,178.9,411.5,210.6,394.2,233.1z M447,47.3c-3.2,17.9-10.6,65.4-9.4,121.9
	c-3.5,16-10.5,23.1-16.1,26.4c-0.3-15.9-5.7-31.8-16.2-44.8l24.7-127.7c0.4-2.1,1.9-3.9,4-4.6c1.6-0.6,3.4-0.5,4.9,0.3
	c1.5,0.8,2.6,2.1,3.1,3.8l4.6,15.7C447.3,41,447.5,44.2,447,47.3z"/>
</svg>
