<?xml version="1.0" encoding="iso-8859-1"?>
<!-- Generator: Adobe Illustrator 19.0.0, SVG Export Plug-In . SVG Version: 6.00 Build 0)  -->
<svg version="1.1" id="Layer_1" xmlns="http://www.w3.org/2000/svg" xmlns:xlink="http://www.w3.org/1999/xlink" x="0px" y="0px"
	 viewBox="0 0 496.944 496.944" style="enable-background:new 0 0 496.944 496.944;" xml:space="preserve">
<g>
	<g>
		<g>
			<path d="M464.472,0c-14.864,0-27.288,10.232-30.864,24h-57.136c-39.696,0-72,32.296-72,72v48h16V96c0-30.872,25.12-56,56-56
				h57.136c1.264,4.872,3.648,9.256,6.864,12.944V496h48V52.944c4.92-5.632,8-12.904,8-20.944C496.472,14.352,482.12,0,464.472,0z
				 M472.472,480h-16V62.864c2.576,0.672,5.224,1.136,8,1.136s5.424-0.464,8-1.136V480z M464.472,48c-8.824,0-16-7.176-16-16
				s7.176-16,16-16c8.824,0,16,7.176,16,16S473.296,48,464.472,48z"/>
			<path d="M304.472,424c0,30.872-25.12,56-56,56s-56-25.128-56-56V96c0-39.704-32.304-72-72-72s-72,32.296-72,72v113.136
				c-13.76,3.576-24,15.992-24,30.864s10.24,27.288,24,30.864v52.512c-12.624,7.768-48,34.024-48,84.624
				c0,60.248,50.28,86.088,52.424,87.16l3.576,1.784l3.576-1.792c2.144-1.064,52.424-26.904,52.424-87.152
				c0-50.6-35.376-76.856-48-84.624v-52.512c13.76-3.576,24-15.992,24-30.864s-10.24-27.288-24-30.864V96c0-30.872,25.12-56,56-56
				s56,25.128,56,56v328c0,39.704,32.304,72,72,72s72-32.296,72-72V160h-16V424z M48.472,473.096
				c-9.288-7.392-21.672-20.296-27.96-39.512l27.96-18.64V473.096z M48.472,395.72l-31.528,21.016
				c-0.28-2.816-0.472-5.712-0.472-8.736c0-33.896,19.072-54.808,32-65.104V395.72z M64.472,473.096V448l14.336,10.752
				C73.976,464.816,68.88,469.592,64.472,473.096z M96.472,408c0,14.88-3.712,27.216-8.936,37.296L64.472,428v-45.056l31.832,21.224
				C96.36,405.448,96.472,406.688,96.472,408z M92.408,382.344L64.472,363.72v-20.816C73.744,350.288,86.12,363.168,92.408,382.344z
				 M72.472,240c0,8.824-7.176,16-16,16s-16-7.176-16-16c0-8.824,7.176-16,16-16C65.296,224,72.472,231.176,72.472,240z"/>
		</g>
	</g>
</g>
<g>
</g>
<g>
</g>
<g>
</g>
<g>
</g>
<g>
</g>
<g>
</g>
<g>
</g>
<g>
</g>
<g>
</g>
<g>
</g>
<g>
</g>
<g>
</g>
<g>
</g>
<g>
</g>
<g>
</g>
</svg>
