<?xml version="1.0" encoding="utf-8"?>
<!-- Generator: Adobe Illustrator 21.1.0, SVG Export Plug-In . SVG Version: 6.00 Build 0)  -->
<svg version="1.1" id="Capa_1" xmlns="http://www.w3.org/2000/svg" xmlns:xlink="http://www.w3.org/1999/xlink" x="0px" y="0px"
	 viewBox="0 0 512 512" style="enable-background:new 0 0 512 512;" xml:space="preserve">
<style type="text/css">
	.st0{fill:#FFFFFF;}
</style>
<g>
	<g>
		<g>
			<path class="st0" d="M-18.5,333.8c0.3,0,0.7,0,1,0l3.1-0.2c9.4-0.6,39.3-2.3,75.3-4.4c-1.8,4.8-2.8,7.6-2.9,7.9
				c-0.1,0.4-0.3,0.8-0.3,1.2c0,0,0,0,0,0c0,0.2-0.1,0.4-0.1,0.6c-0.4,2.8,0.3,5.6,2.1,7.8c2.2,2.7,5.6,4.1,9,3.7
				c0.3,0,30.7-3.8,47.3-3.9c1.4,0,3.3,0,5.6,0c34.3-0.3,159.1-1,198.7-1.2c0,0,0,0,0,0c0,0,0,0,0,0l42.6-0.2
				c5.6,4.4,11.6,8.2,18,11.3c48.7,23.8,107.8,3.4,131.6-45.4c17.1-35.1,11.4-75.5-11.3-104.3l5.5-36.2c1-6.4-1.5-12.8-6.6-16.7
				c-5-4-11.8-4.9-17.8-2.5l-46.8,18.9c-7.2-0.8-14.5-0.9-21.8-0.1C348.4,93,277.3,75.6,202.2,118.2c-23.9,13.6-48.2,38.5-72.1,74
				L21.9,219.5c-0.1,0-0.2,0-0.2,0.1c-8.4,2.3-17.7,6.1-22.6,16.1c-2.2,4.5-3.2,9.5-2.9,14.5c0.4,6.5,2.9,12.6,7.1,17.4l-28,7
				c-0.1,0-0.2,0.1-0.3,0.1c-8.8,2.5-17.7,6.2-22.5,16.1c-2.2,4.5-3.2,9.5-2.9,14.5C-49.6,320.9-35.8,333.1-18.5,333.8z
				 M471.8,181.6c-0.1,0-0.2-0.1-0.2-0.1c-0.6-0.3-1.2-0.7-1.9-1c-0.1-0.1-0.2-0.1-0.4-0.2c-0.7-0.4-1.5-0.8-2.2-1.1
				c-0.2-0.1-0.4-0.2-0.6-0.3l19.7-8l-2.8,18.3C479.8,186.4,475.9,183.9,471.8,181.6z M319.3,325.1c-0.1,0-0.1,0-0.2,0
				c-2.1,0-4.5,0-7.1,0c-0.9,0-1.8,0-2.8,0c-1,0-2.1,0-3.2,0c-0.7,0-1.3,0-2,0c-0.8,0-1.6,0-2.5,0c-1.3,0-2.5,0-3.8,0
				c-0.4,0-0.9,0-1.3,0c-56.2,0.3-161.2,0.9-180.8,1.1c-9.5,0.1-22.7,1.2-33.1,2.3c0.3-0.8,0.7-1.7,1.1-2.6c0.1-0.3,0.2-0.6,0.4-0.9
				c0.3-0.6,0.5-1.3,0.8-1.9c0.2-0.4,0.3-0.8,0.5-1.1c0.1-0.3,0.2-0.6,0.4-0.9c0.5-1.1,0.9-2.2,1.4-3.4c0.1-0.2,0.2-0.5,0.3-0.7
				c0.1-0.3,0.2-0.6,0.3-0.8c0.5-1.2,1-2.4,1.5-3.6c0.1-0.1,0.1-0.3,0.2-0.4c0.2-0.4,0.3-0.7,0.5-1.1c0.5-1.1,1-2.2,1.4-3.3
				c0.1-0.3,0.3-0.7,0.4-1c0.1-0.2,0.2-0.4,0.3-0.7c0.3-0.6,0.5-1.2,0.8-1.7c9.7-6.7,21.5-12,35-15.8c14.1-3.9,24.9-4.7,26.1-4.8
				c-0.3,0-0.7,0-1.1,0c0.4,0,0.8,0,1.1,0c0,0,0.1,0,0.1,0c1.1,0,2.3-0.3,3.3-0.7c2.6-1,4.7-3.1,5.7-5.8
				c14-37.3,34.7-61.7,61.6-72.4c39.9-16,81,3.5,81.4,3.7c0.2,0.1,0.4,0.2,0.6,0.3c0.4,0.1,35.4,14.7,46.3,43.1
				c2.7,7.1,3.6,14.6,2.8,22.4l-124.1,6.8c-3.8,0.2-6.9,2.5-8.4,5.6c-0.7,1.5-1.1,3.2-1,4.9c0.3,5.5,5,9.7,10.5,9.4l117.1-6.4
				c-0.2,0.5-0.4,1-0.7,1.5C342.6,308.9,332.2,319.2,319.3,325.1z M151.5,283.7c0.4,0.1,0.7,0.1,1.1,0.2
				C152.3,283.8,151.9,283.7,151.5,283.7z M144.8,206.2c19.6-29.7,42.5-56.6,67.2-70.6c67.8-38.4,129.9-21.6,189.8,51.2
				c2.3,2.8,5.8,4.1,9.4,3.5c8-1.3,16-1.4,23.9-0.3c0.1,0,0.1,0,0.2,0c8,1.2,15.7,3.5,23,7.1c1.2,0.6,2.4,1.2,3.6,1.9
				c0.1,0,0.1,0.1,0.2,0.1c36.1,20.1,50.6,65.3,32.2,102.9c-19,38.9-66,55.1-104.8,36.2c-6-2.9-11.6-6.6-16.7-10.9
				c-1.8-1.6-4.2-2.4-6.6-2.4L353,325c5.5-5.9,10.2-12.6,13.8-20c10.2-21,11.8-41.2,4.6-60.1c-13.4-35.2-52.9-52.5-57.1-54.3
				c-4.6-2.2-50.3-22.8-97.1-4.2c-8.2,3.3-15.9,7.5-23.1,12.8c11.8-13.9,23.1-24.1,33.7-30.1c25.5-14.4,48.4-18.8,70-13.4
				c15.8,4,32.3,13.5,49,28.2c4.1,3.7,10.5,3.3,14.1-0.9c3.7-4.1,3.3-10.5-0.9-14.1c-19.1-16.9-38.4-27.9-57.4-32.6
				c-26.8-6.7-54.5-1.7-84.7,15.4c-29,16.4-60.9,56.9-92.3,117c-1.1,0.3-2.2,0.6-3.4,0.9c-5.6,1.6-10.9,3.4-16,5.4
				c0.7-1.4,1.3-2.8,2-4.2c0.1-0.3,0.3-0.6,0.5-0.9c1.3-2.7,2.7-5.3,4-8c10.4-20.4,21.1-39,31.8-55.2
				C144.7,206.4,144.7,206.3,144.8,206.2z M19.2,255.4c-1.9-1.7-3-3.9-3.1-6.4c-0.1-1.6,0.2-3.2,0.9-4.6c1-2.1,2.9-3.6,9.8-5.6
				l87.8-22.1c-0.2,0.3-0.4,0.7-0.6,1c-0.8,1.4-1.6,2.8-2.5,4.2c-0.3,0.5-0.6,1.1-0.9,1.6c-1,1.7-1.9,3.4-2.9,5.1
				c-0.4,0.8-0.9,1.5-1.3,2.3c-0.7,1.3-1.4,2.5-2.1,3.8c-0.6,1.1-1.2,2.2-1.8,3.3c-0.6,1.2-1.3,2.4-1.9,3.6c-0.3,0.5-0.6,1-0.8,1.6
				l-52.4,13.2l-21.5,1.3C23.5,257.9,21.1,257.1,19.2,255.4z M-30.5,304.2c-0.1-1.6,0.2-3.2,0.9-4.6c0.9-1.8,2.2-3.4,9.8-5.6
				l107.6-27.1c-1.3,2.8-2.7,5.6-4,8.4c-0.5,1.1-1,2.2-1.6,3.3c0,0,0,0,0,0c0,0.1-0.1,0.1-0.1,0.2l-0.3,0.7
				c-0.3,0.6-0.5,1.2-0.8,1.8c-0.8,1.7-1.6,3.4-2.3,5.1c-0.1,0.2-0.2,0.5-0.3,0.7c-1,2.3-2,4.5-3,6.7c-1.7,3.9-3.3,7.7-4.8,11.2
				c-0.5,1.2-1,2.4-1.5,3.6c-40.1,2.4-74.5,4.4-84.7,5l-2.6,0.2C-24.9,313.3-30.2,309.3-30.5,304.2z"/>
			<polygon class="st0" points="153.8,283.9 153.8,283.9 153.8,283.9 			"/>
		</g>
	</g>
</g>
<g>
	<g>
		<path class="st0" d="M387.7,213.2c4.3-3.5,4.9-9.8,1.4-14.1l-0.1-0.2c-0.9-1.1-2.1-2-3.3-2.6c-3.4-1.7-7.6-1.3-10.7,1.3
			c-1.1,0.9-2,2.1-2.6,3.3c-1.7,3.4-1.3,7.6,1.3,10.7l0.1,0.2c0.9,1.1,2.1,2,3.3,2.6C380.4,216.1,384.6,215.7,387.7,213.2z"/>
	</g>
</g>
<g>
	<g>
		<path class="st0" d="M453.8,292l13.6-11.2c2.3-1.8,3.6-4.6,3.7-7.5l0.4-17.6c0.1-5.5-4.2-10.1-9.8-10.2c-4-0.1-7.6,2.2-9.2,5.6
			c-0.6,1.3-1,2.7-1,4.1l-0.3,13l-10.1,8.3c-4.3,3.5-4.9,9.8-1.4,14.1C443.3,294.9,449.6,295.5,453.8,292z"/>
	</g>
</g>
<g>
	<g>
		<path class="st0" d="M196.7,302.7c0.6-0.2,1.2-0.5,1.8-0.8c0.6-0.3,1.1-0.7,1.6-1.2c0.5-0.4,0.9-0.9,1.3-1.4
			c0.8-1,1.4-2.2,1.7-3.5c0.2-0.6,0.3-1.3,0.3-1.9c0-0.6,0-1.3-0.1-1.9c-0.1-0.7-0.2-1.3-0.4-1.9s-0.5-1.2-0.8-1.8
			c-0.3-0.6-0.7-1.1-1.2-1.6c-0.4-0.5-0.9-0.9-1.4-1.3c-0.5-0.4-1.1-0.7-1.7-1c-0.6-0.3-1.2-0.5-1.8-0.7c-0.6-0.2-1.3-0.3-1.9-0.3
			c-0.6,0-1.3,0-1.9,0.1c-0.7,0.1-1.3,0.2-1.9,0.5c-0.6,0.2-1.2,0.5-1.8,0.8c-0.6,0.3-1.1,0.7-1.6,1.1c-0.5,0.4-0.9,0.9-1.3,1.4
			c-0.4,0.5-0.8,1.1-1,1.7c-0.3,0.6-0.5,1.2-0.7,1.8c-0.2,0.6-0.3,1.3-0.3,1.9c0,0.7,0,1.3,0.1,2c0.1,0.7,0.2,1.3,0.4,1.9
			c0.9,2.5,2.7,4.6,5.1,5.7S194.2,303.6,196.7,302.7z"/>
	</g>
</g>
</svg>
