<?xml version="1.0" encoding="utf-8"?>
<!-- Generator: Adobe Illustrator 21.1.0, SVG Export Plug-In . SVG Version: 6.00 Build 0)  -->
<svg version="1.1" id="Capa_1" xmlns="http://www.w3.org/2000/svg" xmlns:xlink="http://www.w3.org/1999/xlink" x="0px" y="0px"
	 viewBox="0 0 465 465" style="enable-background:new 0 0 465 465;" xml:space="preserve">
<style type="text/css">
	.st0{fill:#FFFFFF;}
</style>
<path class="st0" d="M423.8,395.6H290.8V69.4h52.1v129c-15.6,3.4-27.4,17.4-27.4,34.1c0,19.2,15.6,34.9,34.9,34.9
	c19.2,0,34.9-15.6,34.9-34.9c0-16.7-11.7-30.6-27.4-34.1v-129h45.7c13.1,0,23.7-10.6,23.7-23.7V23.7c0-13.1-10.6-23.7-23.7-23.7
	H61.4C48.4,0,37.7,10.6,37.7,23.7v21.9c0,13.1,10.6,23.7,23.7,23.7h112.8v326.2H41.2c-13.1,0-23.7,10.6-23.7,23.7v21.9
	c0,13.1,10.6,23.7,23.7,23.7h382.7c13.1,0,23.7-10.6,23.7-23.7v-21.9C447.6,406.2,436.9,395.6,423.8,395.6z M370.2,232.5
	c0,11-8.9,19.9-19.9,19.9s-19.9-8.9-19.9-19.9s8.9-19.9,19.9-19.9S370.2,221.5,370.2,232.5z M52.7,45.7V23.7c0-4.8,3.9-8.7,8.7-8.7
	h342.1c4.8,0,8.7,3.9,8.7,8.7v21.9c0,4.8-3.9,8.7-8.7,8.7H61.4C56.6,54.4,52.7,50.5,52.7,45.7z M189.2,342.4H202
	c4.1,0,7.5-3.4,7.5-7.5s-3.4-7.5-7.5-7.5h-12.8v-53.2h63.6c4.1,0,7.5-3.4,7.5-7.5s-3.4-7.5-7.5-7.5h-63.6v-53.2H233
	c4.1,0,7.5-3.4,7.5-7.5s-3.4-7.5-7.5-7.5h-43.8V69.4h86.5v53.2h-63.6c-4.1,0-7.5,3.4-7.5,7.5s3.4,7.5,7.5,7.5h63.6v53.2H263
	c-4.1,0-7.5,3.4-7.5,7.5s3.4,7.5,7.5,7.5h12.8v121.5H232c-4.1,0-7.5,3.4-7.5,7.5s3.4,7.5,7.5,7.5h43.8v53.2h-86.5L189.2,342.4
	L189.2,342.4z M432.6,441.3c0,4.8-3.9,8.7-8.7,8.7H41.2c-4.8,0-8.7-3.9-8.7-8.7v-21.9c0-4.8,3.9-8.7,8.7-8.7h382.7
	c4.8,0,8.7,3.9,8.7,8.7L432.6,441.3L432.6,441.3z"/>
</svg>
