<?xml version="1.0" encoding="iso-8859-1"?>
<!-- Generator: Adobe Illustrator 18.0.0, SVG Export Plug-In . SVG Version: 6.00 Build 0)  -->
<!DOCTYPE svg PUBLIC "-//W3C//DTD SVG 1.1//EN" "http://www.w3.org/Graphics/SVG/1.1/DTD/svg11.dtd">
<svg version="1.1" id="Capa_1" xmlns="http://www.w3.org/2000/svg" xmlns:xlink="http://www.w3.org/1999/xlink" x="0px" y="0px"
	 viewBox="0 0 491.394 491.394" style="enable-background:new 0 0 491.394 491.394;" xml:space="preserve">
<path d="M482.894,396.406c3.393,0,6.46-2.017,7.804-5.132c1.345-3.114,0.708-6.73-1.618-9.198
	c-0.423-0.448-42.035-44.409-95.09-85.235c-2.128-28.676-25.21-52.133-52.295-52.133c-7.97,0-15.535,1.761-22.329,4.914
	c-0.186-0.129-0.378-0.252-0.576-0.368c-39.182-22.877-71.809-34.477-96.974-34.477c-1.894,0-3.778,0.041-5.657,0.103v-47.267h24.15
	c20.023,0,36.314-16.29,36.314-36.314c0-20.022-16.29-36.313-36.314-36.313h-65.3c-20.023,0-36.314,16.29-36.314,36.313
	c0,20.023,16.29,36.314,36.314,36.314h24.149v48.646c-82.043,10.771-146.183,79.204-150.261,163.146h-9.215
	c-0.245-0.021-0.494-0.032-0.745-0.032c-12.097,0-21.938-9.841-21.938-21.938V256.534c0-4.694-3.806-8.5-8.5-8.5
	c-4.694,0-8.5,3.806-8.5,8.5v100.902c0,21.189,17.013,38.478,38.096,38.929L482.894,396.406z M259.622,131.3
	c0,10.649-8.664,19.314-19.314,19.314h-24.15v-38.626h24.15C250.958,111.987,259.622,120.65,259.622,131.3z M175.009,150.613
	c-10.649,0-19.314-8.664-19.314-19.314s8.664-19.313,19.314-19.313h24.149v38.626H175.009z M65.915,379.406
	c4.432-82.15,72.664-147.629,155.9-147.629c20.849,0,48.48,9.618,82.2,28.602c-9.597,9.63-15.538,22.907-15.538,37.545
	c0,29.344,23.873,53.217,53.217,53.217c4.694,0,8.5-3.806,8.5-8.5c0-4.694-3.806-8.5-8.5-8.5c-19.97,0-36.217-16.247-36.217-36.217
	c0-19.97,16.247-36.216,36.217-36.216c18.888,0,35.455,18.437,35.455,39.455c0,2.655,1.241,5.158,3.355,6.766
	c34.955,26.58,65.184,54.934,82.019,71.478H65.915z"/>
<g>
</g>
<g>
</g>
<g>
</g>
<g>
</g>
<g>
</g>
<g>
</g>
<g>
</g>
<g>
</g>
<g>
</g>
<g>
</g>
<g>
</g>
<g>
</g>
<g>
</g>
<g>
</g>
<g>
</g>
</svg>
